<svg xmlns="http://www.w3.org/2000/svg" viewBox="0 0 200 200" width="200" height="200">
  <g transform="translate(126.33203125,32.7578125)">
    <path d="M0 0 C14.72482831 -0.83025566 27.8251652 5.12367237 38.79296875 14.4296875 C50.3424737 25.25508556 59.13464179 39.57953966 60.04296875 55.6171875 C59.41700818 72.93542983 44.53632654 87.92362904 33.66796875 100.2421875 C32.94222656 101.11359375 32.21648437 101.985 31.46875 102.8828125 C20.41764112 115.87450427 3.15813819 129.66337834 -14.4519043 131.45825195 C-38.09421315 132.7106388 -54.86640121 123.29434222 -72.20703125 107.9921875 C-81.32047524 99.65585889 -89.76842302 91.0181857 -97.33203125 81.2421875 C-98.43611328 79.82873047 -98.43611328 79.82873047 -99.5625 78.38671875 C-106.5650307 69.13929661 -109.71396449 62.04177129 -108.33203125 50.2421875 C-105.70946739 40.54542573 -101.24137089 35.47650898 -92.671875 30.4765625 C-86.13261542 27.02680285 -77.73398782 27.11760006 -70.65625 28.92578125 C-62.74031975 32.22066759 -57.42054419 37.66281958 -52.59375 44.60546875 C-51.41256782 46.38331087 -51.41256782 46.38331087 -49.33203125 47.2421875 C-49.33203125 45.9221875 -49.33203125 44.6021875 -49.33203125 43.2421875 C-48.09914651 31.49646126 -41.05176211 20.50910633 -32.51953125 12.65234375 C-22.60010373 5.1519923 -12.30039298 1.27742775 0 0 Z" fill="#0F0E13"/>
  </g>
  <g transform="translate(144,53)">
    <path d="M0 0 C7.99410895 5.34227892 15.65721686 14.86694518 18.69921875 24.12890625 C18.79847656 24.74636719 18.89773437 25.36382812 19 26 C19.25716797 27.08861328 19.25716797 27.08861328 19.51953125 28.19921875 C20.58090623 37.21383021 15.64851518 42.91032768 10.44140625 49.69921875 C5.47369372 55.96542248 0.36010705 62.06615716 -5 68 C-5.61101562 68.69480469 -6.22203125 69.38960938 -6.8515625 70.10546875 C-16.15396742 80.11815582 -29.62335334 89.07693111 -43.4375 89.625 C-50.8414435 89.34744589 -56.52423873 87.51106282 -63 84 C-63.90105469 83.5153125 -64.80210938 83.030625 -65.73046875 82.53125 C-73.79271935 77.78464359 -80.33031093 71.47793 -87 65 C-88.28777344 63.77216797 -88.28777344 63.77216797 -89.6015625 62.51953125 C-93.64013128 58.60226224 -93.64013128 58.60226224 -95 57 C-95 56.34 -95 55.68 -95 55 C-95.66 55 -96.32 55 -97 55 C-98.87397988 52.828563 -100.63539824 50.65021599 -102.375 48.375 C-102.85710937 47.75753906 -103.33921875 47.14007813 -103.8359375 46.50390625 C-111.76102993 36.27450706 -111.76102993 36.27450706 -112.5625 32 C-111.76917613 27.76893936 -109.99780451 26.0691808 -107 23 C-104.13391871 21.56695936 -102.18699217 21.69355845 -99 22 C-94.32478469 24.64741108 -91.54926588 27.53476306 -88.4375 31.875 C-78.28556651 45.5782473 -63.11146175 65.18419967 -45.484375 68.46875 C-40.8617604 68.65243005 -37.7452529 67.89955063 -34 65 C-35.2375 63.576875 -35.2375 63.576875 -36.5 62.125 C-37.66988714 60.75273902 -38.83619096 59.37741956 -40 58 C-40.67289062 57.20464844 -41.34578125 56.40929687 -42.0390625 55.58984375 C-50.96268562 44.7778884 -53.77483508 35.96138025 -53 22 C-51.48695269 13.11405264 -45.91047494 5.8559431 -38.953125 0.3203125 C-27.00741214 -7.7549894 -12.24514267 -7.19159173 0 0 Z" fill="#B5FB25"/>
  </g>
  <g transform="translate(131.625,69)">
    <path d="M0 0 C8.98017099 7.56224925 8.98017099 7.56224925 9.98046875 13.73828125 C9.75229503 19.22787258 6.38425754 22.56029299 2.875 26.5 C2.25496094 27.22703125 1.63492188 27.9540625 0.99609375 28.703125 C-0.52748768 30.48454329 -2.06724641 32.24848328 -3.625 34 C-7.32865785 33.22531624 -8.65506484 32.20786491 -11.0625 29.25 C-13.12280271 26.77320599 -15.16149503 24.40399602 -17.5 22.1875 C-20.98163873 18.60346013 -20.96813955 15.0429151 -20.90625 10.28515625 C-20.34313252 5.70982676 -17.81989606 3.02419662 -14.4375 0.125 C-9.61543138 -1.80382745 -4.86096253 -1.85179525 0 0 Z" fill="#101115"/>
  </g>
</svg>
